<?xml version="1.0" encoding="utf-8"?>
<!-- Generator: Adobe Illustrator 24.2.3, SVG Export Plug-In . SVG Version: 6.00 Build 0)  -->
<svg version="1.1" id="Ebene_1" xmlns="http://www.w3.org/2000/svg" xmlns:xlink="http://www.w3.org/1999/xlink" x="0px" y="0px"
	 viewBox="0 0 345.8 50" style="enable-background:new 0 0 345.8 50;" xml:space="preserve">
<style type="text/css">
	.st0{enable-background:new    ;}
	.st1{fill:#D2CFE9;}
	.st2{fill:#FFCD37;}
</style>
<g>
	<g class="st0">
		<path class="st1" d="M0,42.5l17.5-35h9l17.5,35H33.1l-3.3-6.6H11.6l-3.3,6.6H0z M15.2,28.7h11l-5.5-11L15.2,28.7z"/>
	</g>
	<g class="st0">
		<path class="st1" d="M44.9,35.3v-3.6h10.2v2.1c0,1,0.5,1.5,1.5,1.5h14c1,0,1.5-0.5,1.5-1.5v-3.9c0-1-0.5-1.5-1.5-1.5H52.1
			c-2.3,0-4.1-0.6-5.4-1.9c-1.2-1.2-1.9-3-1.9-5.3v-6.5c0-2.3,0.6-4.1,1.9-5.4c1.2-1.2,3-1.8,5.4-1.8h23c2.3,0,4.1,0.6,5.4,1.8
			c1.2,1.2,1.8,3,1.8,5.4v3.6H72.1v-2.1c0-1-0.5-1.5-1.5-1.5h-14c-1,0-1.5,0.5-1.5,1.5v3.5c0,1,0.5,1.5,1.5,1.5h18.5
			c2.3,0,4.1,0.6,5.4,1.8c1.2,1.2,1.8,3,1.8,5.4v6.9c0,2.3-0.6,4.1-1.8,5.4c-1.2,1.2-3,1.8-5.4,1.8h-23c-2.3,0-4.1-0.6-5.4-1.8
			C45.5,39.4,44.9,37.6,44.9,35.3z"/>
	</g>
	<g class="st0">
		<path class="st1" d="M84.4,14.7V7.5h37.3v7.2h-13.5v27.8H97.9V14.7H84.4z"/>
		<path class="st1" d="M124.9,42.5v-35h30.2c2.3,0,4.1,0.6,5.3,1.8c1.2,1.2,1.9,3,1.9,5.4V18c0,2.3-0.6,4.1-1.9,5.3
			c-1.2,1.2-3,1.8-5.3,1.8v0.5c2.3,0,4.1,0.6,5.3,1.8c1.2,1.2,1.9,3,1.9,5.3v9.8h-10.2V29.9c0-1-0.5-1.5-1.5-1.5h-15.5v14.1H124.9z
			 M135.1,21.2h15.5c1,0,1.5-0.5,1.5-1.5v-3.5c0-1-0.5-1.5-1.5-1.5h-15.5V21.2z"/>
	</g>
	<g class="st0">
		<path class="st2" d="M166.8,35.3V14.7c0-2.3,0.6-4.1,1.9-5.4c1.2-1.2,3-1.8,5.4-1.8h23c0.3,0,0.6,0,0.9,0l4.3-4.3l5,5.1l-3.4,3.4
			c0.3,0.9,0.4,1.8,0.4,3v20.6c0,2.3-0.6,4.1-1.8,5.4c-1.2,1.2-3,1.8-5.4,1.8h-23c-0.3,0-0.6,0-0.9,0l-4.3,4.3l-5.1-5.1l3.4-3.4
			C167,37.4,166.8,36.4,166.8,35.3z M177,16.2v12.3l13.8-13.7h-12.3C177.5,14.7,177,15.2,177,16.2z M194.1,33.8V21.5l-13.8,13.8
			h12.3C193.6,35.3,194.1,34.8,194.1,33.8z"/>
	</g>
	<g class="st0">
		<path class="st1" d="M209.3,42.5v-35h13.9l16.8,25.7V7.5h7.8v35H234l-16.9-25.7v25.7H209.3z"/>
		<path class="st1" d="M263.1,7.5v35h-10.2v-35H263.1z"/>
		<path class="st1" d="M266.3,14.7V7.5h37.3v7.2h-13.5v27.8h-10.2V14.7H266.3z"/>
		<path class="st1" d="M306.9,42.5v-35h37.3v7.2h-27.1v6.5h23.5v7.2h-23.5v6.9h27.1v7.2H306.9z"/>
	</g>
</g>
</svg>
