<svg id="Ebene_1" data-name="Ebene 1" xmlns="http://www.w3.org/2000/svg" viewBox="0 0 113 173"><defs><style>.cls-1{fill:#1d71b8;}.cls-2{fill:#fff;}.cls-3{fill:transparent;}</style></defs><path class="cls-1" d="M269,133.5A56.5,56.5,0,1,0,194,186.87L156,250H269l-37.95-63.13A56.52,56.52,0,0,0,269,133.5Z" transform="translate(-156 -77)"/><path class="cls-2" d="M211.8,202.1h-.1l-5.65,3.05-.85-3.35,7.1-3.8h3.75v32.5H211.8Z" transform="translate(-156 -77)"/><path class="cls-3" d="M269,133.5A56.5,56.5,0,1,0,194,186.87L156,250H269l-37.95-63.13A56.52,56.52,0,0,0,269,133.5Z" transform="translate(-156 -77)"/></svg>