<svg id="Ebene_1" data-name="Ebene 1" xmlns="http://www.w3.org/2000/svg" viewBox="0 0 113 173.02"><defs><style>.cls-1{fill:#1d71b8;}.cls-2{fill:#fff;}.cls-3{fill:transparent;}</style></defs><path class="cls-1" d="M113,56.5a56.5,56.5,0,1,0-75,53.37L0,173H113L75.05,109.87A56.52,56.52,0,0,0,113,56.5Z" transform="translate(0 0.02)"/><path class="cls-2" d="M45,153.18v-2.7c7-6.55,16.48-15.56,15.55-20.36.74-7.18-9.39-7.83-13.35-3.59l-1.4-3.11c6.26-6.11,20-3.21,19.15,6.16.42,6.38-7.08,13.76-13.8,19.85v.1h14.6v3.65Z" transform="translate(0 0.02)"/><path class="cls-3" d="M113,56.5a56.5,56.5,0,1,0-75,53.37L0,173H113L75.05,109.87A56.52,56.52,0,0,0,113,56.5Z" transform="translate(0 0.02)"/></svg>