<svg id="Ebene_1" data-name="Ebene 1" xmlns="http://www.w3.org/2000/svg" xmlns:xlink="http://www.w3.org/1999/xlink" viewBox="0 0 113 173.02"><defs><style>.cls-1{fill:#1d71b8;}.cls-2{fill:#fff;}.cls-3{fill:transparent}</style></defs><path class="cls-1" d="M113,56.5a56.5,56.5,0,1,0-75,53.37L0,173H113L75.05,109.87A56.52,56.52,0,0,0,113,56.5Z" transform="translate(0 0.02)"/><path class="cls-2" d="M55.8,125.1h-.1l-5.65,3.05-.85-3.35,7.1-3.8h3.75v32.5H55.8Z" transform="translate(0 0.02)"/><image width="384" height="384" transform="translate(27.89 32.72) scale(0.15)" xlink:href="avatar.jpg"/><path class="cls-3" d="M113,56.5a56.5,56.5,0,1,0-75,53.37L0,173H113L75.05,109.87A56.52,56.52,0,0,0,113,56.5Z" transform="translate(0 0.02)"/></svg>