<svg id="Ebene_1" data-name="Ebene 1" xmlns="http://www.w3.org/2000/svg" viewBox="0 0 113 173.02"><defs><style>.cls-1{fill:#1d71b8;}.cls-2{fill:#fff;}.cls-3{fill:transparent;}</style></defs><path class="cls-1" d="M113,56.5a56.5,56.5,0,1,0-75,53.37L0,173H113L75.05,109.87A56.52,56.52,0,0,0,113,56.5Z" transform="translate(0 0.02)"/><path class="cls-2" d="M43.36,154a14.71,14.71,0,0,0,7.2,2.05c5.65,0,7.4-3.6,7.36-6.3-.05-4.55-4.16-6.5-8.41-6.5H47.06V140h2.45c3.2,0,7.26-1.65,7.26-5.5,0-2.6-1.66-4.9-5.71-4.9a11.94,11.94,0,0,0-6.5,2.15l-1.15-3.2a15.45,15.45,0,0,1,8.5-2.5c6.41,0,9.3,3.8,9.3,7.75,0,3.35-2,6.2-6,7.65v.1c4,.8,7.25,3.8,7.25,8.35,0,5.2-4,9.75-11.85,9.75a16.52,16.52,0,0,1-8.45-2.2Z" transform="translate(0 0.02)"/><path class="cls-3" d="M113,56.5a56.5,56.5,0,1,0-75,53.37L0,173H113L75.05,109.87A56.52,56.52,0,0,0,113,56.5Z" transform="translate(0 0.02)"/></svg>